<?xml version="1.0" encoding="UTF-8" standalone="no"?>
<!DOCTYPE svg PUBLIC "-//W3C//DTD SVG 1.1//EN" "http://www.w3.org/Graphics/SVG/1.1/DTD/svg11.dtd">
<svg xmlns="http://www.w3.org/2000/svg" version="1.1" viewBox="0.00 0.00 628.00 353.00">
<g stroke-width="2.00" fill="none" stroke-linecap="butt">
<path stroke="#7a8263" vector-effect="non-scaling-stroke" d="
  M 525.19 80.08
  Q 524.37 79.81 523.06 80.07
  C 510.77 82.50 494.77 86.23 479.16 89.08
  A 0.68 0.68 0.0 0 1 478.37 88.55
  L 470.57 53.09"
/>
<path stroke="#b18947" vector-effect="non-scaling-stroke" d="
  M 527.91 139.69
  Q 522.61 145.26 520.61 153.11
  Q 517.32 166.04 526.29 174.69"
/>
<path stroke="#a798bc" vector-effect="non-scaling-stroke" d="
  M 526.29 174.69
  Q 528.35 180.17 527.81 188.20
  A 0.33 0.32 34.3 0 0 527.85 188.39
  Q 528.27 189.18 530.49 188.93"
/>
<path stroke="#b18947" vector-effect="non-scaling-stroke" d="
  M 530.49 188.93
  Q 552.02 189.44 574.25 188.91
  Q 575.09 188.89 575.99 188.58"
/>
<path stroke="#a55f98" vector-effect="non-scaling-stroke" d="
  M 578.32 254.19
  L 565.78 253.89
  A 0.76 0.75 2.8 0 0 565.01 254.58
  C 563.53 272.42 548.96 287.36 530.61 287.49
  A 0.76 0.76 0.0 0 0 529.86 288.24
  L 529.66 302.74"
/>
<path stroke="#ac6351" vector-effect="non-scaling-stroke" d="
  M 78.77 260.68
  L 102.61 260.98
  A 0.58 0.58 0.0 0 0 103.20 260.40
  L 103.20 210.40
  A 1.03 1.03 0.0 0 0 102.17 209.37
  L 78.50 209.35"
/>
<path stroke="#a03253" vector-effect="non-scaling-stroke" d="
  M 227.79 155.09
  L 228.18 154.11"
/>
<path stroke="#a55f98" vector-effect="non-scaling-stroke" d="
  M 228.18 154.11
  Q 228.24 154.28 228.50 154.30
  A 0.30 0.29 -84.5 0 0 228.80 154.04
  Q 229.43 149.10 227.92 143.23"
/>
<path stroke="#a03253" vector-effect="non-scaling-stroke" d="
  M 227.92 143.23
  Q 227.75 143.85 227.58 144.47"
/>
<path stroke="#faa70b" vector-effect="non-scaling-stroke" d="
  M 585.02 128.77
  Q 580.09 131.78 578.44 133.95
  Q 577.10 135.69 576.28 140.97"
/>
<path stroke="#f6dc76" vector-effect="non-scaling-stroke" d="
  M 530.49 188.93
  Q 531.26 183.53 530.49 177.93
  A 1.97 1.86 24.9 0 0 530.13 177.03
  Q 528.24 174.43 526.29 174.69"
/>
<path stroke="#e34c5e" vector-effect="non-scaling-stroke" d="
  M 227.92 143.23
  Q 226.75 149.25 228.18 154.11"
/>
<path stroke="#713c53" vector-effect="non-scaling-stroke" d="
  M 226.13 137.34
  Q 221.13 137.43 210.23 138.33
  Q 146.14 143.64 82.06 149.09
  Q 78.97 149.35 76.60 150.79"
/>
<path stroke="#829c72" vector-effect="non-scaling-stroke" d="
  M 76.02 146.81
  Q 76.92 145.64 75.92 144.32
  A 1.23 1.22 60.4 0 1 76.43 142.46
  L 89.61 136.95
  A 2.04 2.03 -14.6 0 0 90.85 134.85
  Q 90.51 131.72 87.75 129.98
  Q 83.57 127.35 76.15 123.29
  A 2.68 2.64 -78.8 0 1 74.78 121.21
  L 73.66 110.10"
/>
<path stroke="#b09272" vector-effect="non-scaling-stroke" d="
  M 35.20 117.22
  Q 35.56 115.43 35.20 113.65"
/>
<path stroke="#829347" vector-effect="non-scaling-stroke" d="
  M 187.69 128.60
  A 0.47 0.46 84.6 0 0 188.11 128.08
  Q 187.32 120.97 186.85 113.00
  Q 186.67 109.88 187.42 108.20
  C 192.95 95.83 197.44 86.39 200.30 77.35
  A 0.72 0.72 0.0 0 0 199.55 76.42
  L 186.91 77.64
  A 1.80 1.80 0.0 0 0 185.41 78.78
  L 178.56 96.86
  A 0.55 0.54 -49.6 0 1 177.58 96.94
  L 167.86 80.10
  A 1.40 1.39 72.2 0 0 166.51 79.40
  L 153.56 80.65
  A 0.85 0.84 71.0 0 0 152.93 81.95
  Q 162.66 97.16 171.02 109.99
  Q 172.30 111.94 172.65 114.80
  Q 173.69 123.12 174.24 129.22
  A 0.67 0.67 0.0 0 0 174.97 129.83
  L 187.69 128.60"
/>
<path stroke="#829347" vector-effect="non-scaling-stroke" d="
  M 113.13 107.39
  L 120.75 119.15
  A 1.03 1.01 70.4 0 0 121.70 119.61
  L 130.20 118.79
  A 1.39 1.39 0.0 0 0 131.33 117.98
  L 136.78 105.86
  A 0.31 0.31 0.0 0 1 137.29 105.78
  L 137.62 106.15
  A 0.12 0.10 -72.1 0 1 137.65 106.23
  L 140.62 132.47
  A 0.56 0.55 -5.8 0 0 141.23 132.96
  L 153.58 131.77
  A 0.61 0.60 -5.7 0 0 154.13 131.11
  L 149.36 81.58
  A 0.73 0.73 0.0 0 0 148.56 80.92
  L 135.49 82.17
  A 1.43 1.43 0.0 0 0 134.32 83.01
  L 125.46 102.74
  A 0.73 0.73 0.0 0 1 124.19 102.84
  Q 114.34 88.05 113.25 86.46
  C 112.46 85.30 111.76 84.01 110.24 84.10
  Q 102.06 84.59 97.40 84.94
  A 0.83 0.82 85.0 0 0 96.64 85.85
  L 101.46 135.89
  A 0.62 0.62 0.0 0 0 102.14 136.45
  L 114.23 135.29
  A 0.47 0.47 0.0 0 0 114.65 134.77
  L 112.05 107.77
  A 0.59 0.59 0.0 0 1 113.13 107.39"
/>
<path stroke="#b18947" vector-effect="non-scaling-stroke" d="
  M 364.73 158.33
  Q 361.47 158.10 358.46 157.79
  C 352.64 157.20 352.92 151.33 352.92 147.00
  Q 352.91 108.04 352.71 91.61
  A 0.85 0.84 89.7 0 0 351.87 90.77
  L 332.40 90.77
  A 0.30 0.30 0.0 0 0 332.10 91.07
  Q 332.08 135.68 332.03 149.40
  Q 332.01 156.86 332.89 159.99
  C 335.24 168.31 341.90 174.04 350.75 174.83
  Q 356.79 175.36 364.45 175.11
  A 0.66 0.66 0.0 0 0 365.08 174.45
  L 365.08 158.70
  A 0.37 0.37 0.0 0 0 364.73 158.33"
/>
<path stroke="#b18947" vector-effect="non-scaling-stroke" d="
  M 265.16 175.28
  L 286.00 175.28
  A 0.43 0.42 -0.0 0 0 286.43 174.86
  L 286.43 152.86
  A 0.88 0.88 0.0 0 1 287.32 151.98
  Q 295.21 152.14 303.71 151.62
  C 311.76 151.13 320.17 147.32 323.69 139.87
  Q 325.14 136.80 324.96 130.12
  Q 324.95 129.87 324.97 119.99
  Q 324.97 113.67 323.93 111.11
  C 320.76 103.30 313.07 98.98 305.20 97.74
  Q 302.28 97.27 290.25 97.24
  Q 279.99 97.22 265.29 97.36
  A 0.47 0.47 0.0 0 0 264.83 97.83
  L 264.83 174.95
  A 0.33 0.33 0.0 0 0 265.16 175.28"
/>
<path stroke="#b18947" vector-effect="non-scaling-stroke" d="
  M 404.19 168.88
  L 406.38 174.20
  A 1.70 1.68 78.9 0 0 407.93 175.25
  L 423.87 175.34
  A 0.43 0.43 0.0 0 0 424.30 174.91
  Q 424.41 154.61 424.30 138.42
  C 424.21 124.73 416.48 117.75 403.00 117.36
  Q 390.66 117.01 375.90 117.12
  A 0.58 0.57 -0.2 0 0 375.33 117.68
  L 375.24 133.29
  A 0.67 0.66 0.3 0 0 375.91 133.96
  Q 388.01 134.00 396.45 134.15
  C 400.64 134.23 403.23 134.16 403.68 139.04
  Q 403.88 141.17 403.86 141.80
  A 0.35 0.35 0.0 0 1 403.37 142.11
  C 392.74 137.59 370.28 138.44 369.72 154.53
  C 369.53 159.80 369.39 165.06 372.34 169.50
  C 376.68 176.04 383.73 177.87 391.29 176.72
  Q 399.01 175.53 403.38 168.80
  A 0.46 0.45 50.2 0 1 404.19 168.88"
/>
<path stroke="#b18947" vector-effect="non-scaling-stroke" d="
  M 488.96 117.29
  L 470.61 117.29
  A 0.64 0.63 -82.1 0 0 470.00 117.76
  L 460.24 153.55
  A 1.15 1.15 0.0 0 1 458.20 153.91
  Q 457.43 152.83 457.02 150.99
  Q 453.36 134.75 448.23 118.32
  A 1.34 1.33 -8.5 0 0 446.95 117.38
  L 429.01 117.38
  A 1.10 1.09 85.5 0 0 427.93 118.65
  Q 428.46 122.06 429.85 125.94
  Q 436.66 145.01 447.51 177.02
  C 448.55 180.09 446.80 181.73 443.74 181.93
  Q 438.50 182.27 433.31 181.81
  A 0.67 0.67 0.0 0 0 432.58 182.48
  L 432.58 198.61
  A 0.54 0.54 0.0 0 0 433.11 199.15
  Q 441.36 199.31 448.45 199.11
  C 461.63 198.74 465.73 191.01 469.86 178.81
  Q 473.85 167.01 488.70 125.22
  C 489.43 123.15 490.08 120.12 489.89 118.14
  A 0.94 0.93 87.3 0 0 488.96 117.29"
/>
<path stroke="#a798bc" vector-effect="non-scaling-stroke" d="
  M 364.44 202.43
  A 12.23 12.23 0.0 0 0 352.21 190.20
  A 12.23 12.23 0.0 0 0 339.98 202.43
  A 12.23 12.23 0.0 0 0 352.21 214.66
  A 12.23 12.23 0.0 0 0 364.44 202.43"
/>
<path stroke="#a798bc" vector-effect="non-scaling-stroke" d="
  M 515.67 196.06
  L 496.32 196.06
  A 0.48 0.48 0.0 0 0 495.84 196.54
  Q 495.84 217.57 495.90 253.26
  Q 495.91 260.42 497.06 264.93
  C 499.31 273.73 508.02 278.48 516.77 278.51
  Q 521.29 278.53 527.38 278.93
  A 0.36 0.36 0.0 0 0 527.76 278.57
  L 527.76 261.87
  A 0.70 0.70 0.0 0 0 526.98 261.17
  Q 524.11 261.52 520.75 261.46
  Q 516.41 261.39 516.42 256.75
  Q 516.45 249.82 516.35 196.73
  A 0.68 0.67 0.0 0 0 515.67 196.06"
/>
<path stroke="#a798bc" vector-effect="non-scaling-stroke" d="
  M 121.91 201.01
  A 0.59 0.59 0.0 0 0 121.32 201.60
  L 121.32 278.38
  A 0.59 0.59 0.0 0 0 121.91 278.97
  L 142.18 278.97
  A 0.59 0.59 0.0 0 0 142.77 278.38
  L 142.77 251.09
  A 0.59 0.59 0.0 0 1 143.36 250.50
  L 167.06 250.50
  A 0.59 0.59 0.0 0 0 167.65 249.91
  L 167.65 232.54
  A 0.59 0.59 0.0 0 0 167.06 231.95
  L 143.32 231.95
  A 0.59 0.59 0.0 0 1 142.73 231.36
  L 142.73 220.94
  A 0.59 0.59 0.0 0 1 143.32 220.35
  L 172.32 220.35
  A 0.59 0.59 0.0 0 0 172.91 219.76
  L 172.91 201.60
  A 0.59 0.59 0.0 0 0 172.32 201.01
  L 121.91 201.01"
/>
<path stroke="#a798bc" vector-effect="non-scaling-stroke" d="
  M 333.62 278.23
  L 333.62 262.08
  A 0.51 0.50 88.9 0 0 333.10 261.57
  C 329.56 261.71 323.43 262.62 321.92 258.97
  A 2.49 2.44 33.8 0 1 321.74 258.10
  L 321.54 238.33
  A 0.58 0.58 0.0 0 1 322.12 237.74
  L 333.83 237.74
  A 0.62 0.61 0.0 0 0 334.45 237.13
  L 334.45 220.79
  A 0.55 0.55 0.0 0 0 333.90 220.24
  L 322.36 220.24
  A 0.70 0.70 0.0 0 1 321.66 219.54
  L 321.66 204.87
  A 0.68 0.67 90.0 0 0 320.99 204.19
  L 310.20 204.19
  A 1.21 1.21 0.0 0 0 309.15 204.80
  L 300.61 219.57
  A 1.37 1.36 14.6 0 1 299.42 220.26
  L 292.18 220.26
  A 0.55 0.54 -90.0 0 0 291.64 220.81
  L 291.64 236.72
  A 0.66 0.65 -90.0 0 0 292.29 237.38
  L 300.72 237.38
  A 0.62 0.61 0.0 0 1 301.34 237.99
  Q 301.31 247.90 301.35 257.32
  Q 301.41 274.05 316.96 277.97
  Q 321.18 279.04 333.07 278.80
  A 0.57 0.57 0.0 0 0 333.62 278.23"
/>
<path stroke="#a798bc" vector-effect="non-scaling-stroke" d="
  M 232.21 269.94
  L 221.56 259.30
  A 0.67 0.67 0.0 0 0 220.64 259.28
  C 215.28 264.19 210.10 266.34 202.37 264.53
  A 8.29 8.25 -15.8 0 1 198.42 262.33
  L 194.98 258.89
  A 2.43 2.43 0.0 0 1 196.70 254.74
  L 232.44 254.74
  A 2.05 2.04 -88.2 0 0 234.48 252.82
  Q 234.78 247.95 234.28 242.50
  C 232.48 222.91 211.42 214.61 194.55 220.37
  Q 182.24 224.58 177.02 236.26
  C 174.95 240.89 175.34 244.89 175.25 250.51
  C 174.99 265.86 185.39 278.00 200.42 280.29
  Q 219.46 283.19 232.20 270.79
  A 0.60 0.60 0.0 0 0 232.21 269.94"
/>
<path stroke="#a798bc" vector-effect="non-scaling-stroke" d="
  M 251.32 259.77
  A 1.05 1.04 44.8 0 0 249.85 259.77
  L 239.54 270.09
  A 0.74 0.74 0.0 0 0 239.52 271.12
  C 247.37 279.42 258.02 281.84 269.47 280.25
  C 278.86 278.95 287.97 272.54 287.78 262.18
  Q 287.69 257.14 287.56 256.23
  C 286.04 245.54 274.42 243.84 265.95 242.08
  C 263.13 241.50 257.96 239.33 259.55 235.74
  Q 260.31 234.01 262.94 233.35
  C 268.56 231.93 273.36 235.19 276.54 239.52
  A 0.71 0.70 49.5 0 0 277.61 239.61
  L 287.83 229.38
  A 1.11 1.11 0.0 0 0 287.88 227.85
  Q 282.81 222.09 275.40 220.08
  C 266.13 217.57 254.55 217.89 246.95 224.42
  Q 242.12 228.57 241.66 233.84
  Q 241.13 239.80 241.76 242.66
  C 244.12 253.40 254.71 255.32 264.10 257.40
  Q 266.76 257.99 268.28 259.94
  A 2.48 2.16 49.3 0 1 268.26 263.03
  Q 267.08 264.20 265.27 264.43
  Q 257.06 265.45 251.32 259.77"
/>
<path stroke="#a798bc" vector-effect="non-scaling-stroke" d="
  M 362.20 221.02
  A 0.65 0.65 0.0 0 0 361.55 220.37
  L 342.33 220.37
  A 0.65 0.65 0.0 0 0 341.68 221.02
  L 341.68 278.20
  A 0.65 0.65 0.0 0 0 342.33 278.85
  L 361.55 278.85
  A 0.65 0.65 0.0 0 0 362.20 278.20
  L 362.20 221.02"
/>
<path stroke="#a798bc" vector-effect="non-scaling-stroke" d="
  M 399.45 278.96
  Q 404.93 278.96 410.24 278.91
  A 1.05 1.05 0.0 0 0 411.21 278.23
  Q 414.82 268.23 429.90 226.46
  Q 430.81 223.97 430.71 220.99
  A 0.71 0.70 89.2 0 0 430.01 220.30
  L 411.13 220.30
  A 1.09 1.08 -82.2 0 0 410.09 221.10
  Q 405.07 239.18 400.65 253.91
  Q 400.24 255.28 399.46 255.28
  Q 398.67 255.28 398.26 253.91
  Q 393.86 239.18 388.85 221.09
  A 1.09 1.08 82.3 0 0 387.81 220.29
  L 368.93 220.27
  A 0.71 0.70 -89.1 0 0 368.23 220.96
  Q 368.13 223.94 369.04 226.43
  Q 384.08 268.22 387.68 278.22
  A 1.05 1.05 0.0 0 0 388.65 278.90
  Q 393.96 278.96 399.45 278.96"
/>
<path stroke="#a798bc" vector-effect="non-scaling-stroke" d="
  M 466.97 272.33
  L 469.21 277.68
  A 1.71 1.70 78.5 0 0 470.78 278.73
  L 486.86 278.73
  A 0.43 0.43 0.0 0 0 487.29 278.30
  Q 487.28 257.83 487.08 241.50
  C 486.91 227.70 479.07 220.70 465.48 220.39
  Q 453.03 220.11 438.15 220.30
  A 0.58 0.57 -0.5 0 0 437.58 220.87
  L 437.58 236.61
  A 0.68 0.67 0.0 0 0 438.26 237.28
  Q 450.46 237.25 458.97 237.36
  C 463.19 237.41 465.81 237.33 466.29 242.25
  Q 466.50 244.39 466.48 245.03
  A 0.35 0.35 0.0 0 1 465.99 245.34
  C 455.25 240.85 432.60 241.83 432.13 258.06
  C 431.97 263.38 431.86 268.68 434.86 273.14
  C 439.28 279.71 446.39 281.52 454.01 280.31
  Q 461.79 279.07 466.16 272.26
  A 0.46 0.46 0.0 0 1 466.97 272.33"
/>
<path stroke="#b18947" vector-effect="non-scaling-stroke" d="
  M 286.55 117.45
  L 286.47 132.09
  A 0.81 0.81 0.0 0 0 287.28 132.91
  L 298.08 132.96
  A 6.75 6.74 0.3 0 0 304.86 126.26
  L 304.88 123.48
  A 6.75 6.74 0.3 0 0 298.16 116.70
  L 287.36 116.65
  A 0.81 0.81 0.0 0 0 286.55 117.45"
/>
<path stroke="#f5e6a1" vector-effect="non-scaling-stroke" d="
  M 55.5666 130.8211
  A 4.56 4.33 -140.2 0 0 56.2983 137.0667
  A 4.56 4.33 -140.2 0 0 62.5734 136.6589
  A 4.56 4.33 -140.2 0 0 61.8417 130.4133
  A 4.56 4.33 -140.2 0 0 55.5666 130.8211"
/>
<path stroke="#829347" vector-effect="non-scaling-stroke" d="
  M 576.3768 121.0144
  A 4.26 3.47 -92.6 0 0 573.1036 125.4274
  A 4.26 3.47 -92.6 0 0 576.7632 129.5256
  A 4.26 3.47 -92.6 0 0 580.0364 125.1126
  A 4.26 3.47 -92.6 0 0 576.3768 121.0144"
/>
<path stroke="#b18947" vector-effect="non-scaling-stroke" d="
  M 403.7699 158.0192
  A 7.79 4.30 -0.3 0 0 395.9575 153.7601
  A 7.79 4.30 -0.3 0 0 388.1901 158.1008
  A 7.79 4.30 -0.3 0 0 396.0025 162.3599
  A 7.79 4.30 -0.3 0 0 403.7699 158.0192"
/>
<path stroke="#829c72" vector-effect="non-scaling-stroke" d="
  M 578.45 123.57
  A 1.39 1.39 0.0 0 0 577.06 122.18
  A 1.39 1.39 0.0 0 0 575.67 123.57
  A 1.39 1.39 0.0 0 0 577.06 124.96
  A 1.39 1.39 0.0 0 0 578.45 123.57"
/>
<path stroke="#a798bc" vector-effect="non-scaling-stroke" d="
  M 195.07 242.64
  L 217.21 242.68
  A 0.15 0.15 0.0 0 0 217.36 242.53
  L 217.36 242.41
  A 10.23 10.21 0.1 0 0 207.15 232.18
  L 205.17 232.18
  A 10.23 10.21 0.1 0 0 194.92 242.37
  L 194.92 242.49
  A 0.15 0.15 0.0 0 0 195.07 242.64"
/>
<path stroke="#a798bc" vector-effect="non-scaling-stroke" d="
  M 466.3400 261.3767
  A 7.61 4.06 -0.1 0 0 458.7229 257.3300
  A 7.61 4.06 -0.1 0 0 451.1200 261.4033
  A 7.61 4.06 -0.1 0 0 458.7371 265.4500
  A 7.61 4.06 -0.1 0 0 466.3400 261.3767"
/>
</g>
<path fill="#91bf3a" d="
  M 525.19 80.08
  Q 524.37 79.81 523.06 80.07
  C 510.77 82.50 494.77 86.23 479.16 89.08
  A 0.68 0.68 0.0 0 1 478.37 88.55
  L 470.57 53.09
  L 467.61 39.73
  A 2.03 2.03 0.0 0 1 469.09 37.33
  Q 471.81 36.64 475.51 36.63
  Q 492.56 36.54 505.67 45.60
  Q 508.99 47.90 512.90 50.55
  A 7.62 7.56 88.0 0 1 514.61 52.16
  Q 521.12 60.52 524.17 66.37
  C 526.10 70.09 528.04 74.67 527.79 78.56
  A 0.82 0.81 -9.1 0 1 527.27 79.27
  L 525.19 80.08
  Z"
/>
<path fill="#05588c" d="
  M 226.13 137.34
  Q 221.13 137.43 210.23 138.33
  Q 146.14 143.64 82.06 149.09
  Q 78.97 149.35 76.60 150.79
  L 76.02 146.81
  Q 76.92 145.64 75.92 144.32
  A 1.23 1.22 60.4 0 1 76.43 142.46
  L 89.61 136.95
  A 2.04 2.03 -14.6 0 0 90.85 134.85
  Q 90.51 131.72 87.75 129.98
  Q 83.57 127.35 76.15 123.29
  A 2.68 2.64 -78.8 0 1 74.78 121.21
  L 73.66 110.10
  Q 73.77 104.43 73.15 98.96
  Q 72.10 89.70 72.01 87.87
  Q 71.62 80.21 70.35 71.77
  A 1.07 1.06 -7.0 0 1 71.30 70.56
  L 78.18 69.90
  A 1.03 1.02 -4.4 0 0 79.10 68.83
  Q 78.75 61.93 78.70 61.48
  Q 78.48 59.11 81.15 58.86
  Q 89.38 58.07 102.34 57.13
  C 106.55 56.82 108.93 56.02 109.62 60.75
  Q 109.65 60.99 110.02 65.87
  A 1.13 1.12 86.4 0 0 111.20 66.92
  Q 121.75 66.41 126.08 65.84
  Q 127.16 65.69 128.64 65.18
  A 0.65 0.62 -11.4 0 0 129.07 64.56
  Q 128.91 60.44 128.58 57.64
  C 128.30 55.30 129.65 54.04 131.79 53.96
  Q 143.00 53.55 155.99 52.16
  Q 158.71 51.87 158.86 54.67
  Q 159.09 58.96 159.42 61.75
  A 1.78 1.77 83.9 0 0 161.35 63.32
  L 177.47 61.77
  A 1.49 1.48 84.6 0 0 178.80 60.15
  L 178.06 52.47
  A 2.26 2.26 0.0 0 1 180.28 49.99
  Q 191.77 49.82 202.69 48.28
  Q 205.14 47.94 208.23 49.41
  A 1.00 1.00 0.0 0 1 208.81 50.32
  L 208.81 57.35
  A 1.65 1.65 0.0 0 0 210.61 58.99
  L 218.39 58.24
  A 0.54 0.54 0.0 0 1 218.98 58.71
  Q 220.84 71.74 221.70 86.51
  Q 222.13 93.90 222.82 99.19
  C 224.00 108.11 224.36 117.75 225.56 126.90
  Q 225.83 128.99 225.90 132.11
  Q 225.95 134.84 226.13 137.34
  Z
  M 187.69 128.60
  A 0.47 0.46 84.6 0 0 188.11 128.08
  Q 187.32 120.97 186.85 113.00
  Q 186.67 109.88 187.42 108.20
  C 192.95 95.83 197.44 86.39 200.30 77.35
  A 0.72 0.72 0.0 0 0 199.55 76.42
  L 186.91 77.64
  A 1.80 1.80 0.0 0 0 185.41 78.78
  L 178.56 96.86
  A 0.55 0.54 -49.6 0 1 177.58 96.94
  L 167.86 80.10
  A 1.40 1.39 72.2 0 0 166.51 79.40
  L 153.56 80.65
  A 0.85 0.84 71.0 0 0 152.93 81.95
  Q 162.66 97.16 171.02 109.99
  Q 172.30 111.94 172.65 114.80
  Q 173.69 123.12 174.24 129.22
  A 0.67 0.67 0.0 0 0 174.97 129.83
  L 187.69 128.60
  Z
  M 113.13 107.39
  L 120.75 119.15
  A 1.03 1.01 70.4 0 0 121.70 119.61
  L 130.20 118.79
  A 1.39 1.39 0.0 0 0 131.33 117.98
  L 136.78 105.86
  A 0.31 0.31 0.0 0 1 137.29 105.78
  L 137.62 106.15
  A 0.12 0.10 -72.1 0 1 137.65 106.23
  L 140.62 132.47
  A 0.56 0.55 -5.8 0 0 141.23 132.96
  L 153.58 131.77
  A 0.61 0.60 -5.7 0 0 154.13 131.11
  L 149.36 81.58
  A 0.73 0.73 0.0 0 0 148.56 80.92
  L 135.49 82.17
  A 1.43 1.43 0.0 0 0 134.32 83.01
  L 125.46 102.74
  A 0.73 0.73 0.0 0 1 124.19 102.84
  Q 114.34 88.05 113.25 86.46
  C 112.46 85.30 111.76 84.01 110.24 84.10
  Q 102.06 84.59 97.40 84.94
  A 0.83 0.82 85.0 0 0 96.64 85.85
  L 101.46 135.89
  A 0.62 0.62 0.0 0 0 102.14 136.45
  L 114.23 135.29
  A 0.47 0.47 0.0 0 0 114.65 134.77
  L 112.05 107.77
  A 0.59 0.59 0.0 0 1 113.13 107.39
  Z"
/>
<path fill="#62448c" d="
  M 470.57 53.09
  L 478.37 88.55
  A 0.68 0.68 0.0 0 0 479.16 89.08
  C 494.77 86.23 510.77 82.50 523.06 80.07
  Q 524.37 79.81 525.19 80.08
  Q 527.68 91.14 527.67 96.50
  Q 527.62 117.84 527.91 139.69
  Q 522.61 145.26 520.61 153.11
  Q 517.32 166.04 526.29 174.69
  Q 528.35 180.17 527.81 188.20
  A 0.33 0.32 34.3 0 0 527.85 188.39
  Q 528.27 189.18 530.49 188.93
  Q 552.02 189.44 574.25 188.91
  Q 575.09 188.89 575.99 188.58
  Q 578.21 188.83 578.20 191.50
  Q 578.13 212.25 578.32 254.19
  L 565.78 253.89
  A 0.76 0.75 2.8 0 0 565.01 254.58
  C 563.53 272.42 548.96 287.36 530.61 287.49
  A 0.76 0.76 0.0 0 0 529.86 288.24
  L 529.66 302.74
  Q 528.06 302.04 526.74 302.08
  C 515.92 302.42 502.15 302.12 494.29 302.12
  Q 403.79 302.15 396.89 302.19
  Q 386.04 302.26 379.61 302.07
  C 371.73 301.84 363.78 302.27 354.79 302.26
  Q 236.01 302.05 136.00 301.88
  Q 127.23 301.86 118.75 301.86
  C 111.20 301.85 101.90 298.35 95.89 292.66
  C 93.52 290.41 91.21 289.05 89.37 286.54
  Q 83.49 278.52 81.37 272.12
  Q 80.60 269.78 78.77 260.68
  L 102.61 260.98
  A 0.58 0.58 0.0 0 0 103.20 260.40
  L 103.20 210.40
  A 1.03 1.03 0.0 0 0 102.17 209.37
  L 78.50 209.35
  L 78.84 189.59
  A 1.21 1.21 0.0 0 1 80.17 188.41
  C 87.39 189.10 95.09 188.42 101.98 188.41
  Q 187.67 188.27 225.25 188.64
  Q 228.48 188.67 228.57 186.01
  Q 229.11 169.84 228.36 156.01
  Q 228.33 155.42 227.79 155.09
  L 228.18 154.11
  Q 228.24 154.28 228.50 154.30
  A 0.30 0.29 -84.5 0 0 228.80 154.04
  Q 229.43 149.10 227.92 143.23
  Q 227.75 143.85 227.58 144.47
  Q 228.76 141.63 228.72 139.00
  Q 228.42 120.99 228.72 100.00
  Q 228.98 81.77 240.68 68.41
  Q 242.99 65.77 246.23 63.54
  C 248.89 61.70 251.30 59.75 254.46 58.10
  Q 265.28 52.46 277.38 52.28
  A 0.90 0.89 89.4 0 1 278.29 53.18
  L 278.29 71.83
  A 2.01 2.00 0.0 0 0 280.30 73.83
  L 285.47 73.83
  A 2.41 2.40 -2.8 0 0 287.87 71.19
  L 287.37 66.00
  A 2.37 2.36 -2.7 0 1 289.73 63.41
  L 317.21 63.41
  A 1.32 1.31 -0.4 0 1 318.53 64.70
  Q 318.61 68.21 318.39 71.26
  Q 318.22 73.72 320.50 73.77
  Q 330.87 73.97 336.43 73.73
  A 2.11 2.11 0.0 0 0 338.44 71.41
  L 337.89 65.68
  A 2.06 2.06 0.0 0 1 339.94 63.42
  L 366.84 63.42
  A 1.46 1.46 0.0 0 1 368.30 64.88
  L 368.30 72.55
  A 1.21 1.21 0.0 0 0 369.51 73.76
  L 386.44 73.76
  A 2.07 2.07 0.0 0 0 388.50 71.49
  L 387.89 65.19
  A 1.95 1.95 0.0 0 1 389.96 63.06
  Q 401.72 63.83 415.00 63.14
  Q 417.72 63.00 417.70 65.72
  Q 417.66 68.96 417.57 72.21
  A 1.53 1.53 0.0 0 0 419.10 73.79
  L 426.18 73.79
  A 1.66 1.66 0.0 0 0 427.84 72.08
  Q 427.63 64.94 427.54 57.25
  Q 427.52 55.60 427.89 53.81
  A 0.76 0.76 0.0 0 1 428.63 53.21
  L 470.57 53.09
  Z
  M 364.73 158.33
  Q 361.47 158.10 358.46 157.79
  C 352.64 157.20 352.92 151.33 352.92 147.00
  Q 352.91 108.04 352.71 91.61
  A 0.85 0.84 89.7 0 0 351.87 90.77
  L 332.40 90.77
  A 0.30 0.30 0.0 0 0 332.10 91.07
  Q 332.08 135.68 332.03 149.40
  Q 332.01 156.86 332.89 159.99
  C 335.24 168.31 341.90 174.04 350.75 174.83
  Q 356.79 175.36 364.45 175.11
  A 0.66 0.66 0.0 0 0 365.08 174.45
  L 365.08 158.70
  A 0.37 0.37 0.0 0 0 364.73 158.33
  Z
  M 265.16 175.28
  L 286.00 175.28
  A 0.43 0.42 -0.0 0 0 286.43 174.86
  L 286.43 152.86
  A 0.88 0.88 0.0 0 1 287.32 151.98
  Q 295.21 152.14 303.71 151.62
  C 311.76 151.13 320.17 147.32 323.69 139.87
  Q 325.14 136.80 324.96 130.12
  Q 324.95 129.87 324.97 119.99
  Q 324.97 113.67 323.93 111.11
  C 320.76 103.30 313.07 98.98 305.20 97.74
  Q 302.28 97.27 290.25 97.24
  Q 279.99 97.22 265.29 97.36
  A 0.47 0.47 0.0 0 0 264.83 97.83
  L 264.83 174.95
  A 0.33 0.33 0.0 0 0 265.16 175.28
  Z
  M 404.19 168.88
  L 406.38 174.20
  A 1.70 1.68 78.9 0 0 407.93 175.25
  L 423.87 175.34
  A 0.43 0.43 0.0 0 0 424.30 174.91
  Q 424.41 154.61 424.30 138.42
  C 424.21 124.73 416.48 117.75 403.00 117.36
  Q 390.66 117.01 375.90 117.12
  A 0.58 0.57 -0.2 0 0 375.33 117.68
  L 375.24 133.29
  A 0.67 0.66 0.3 0 0 375.91 133.96
  Q 388.01 134.00 396.45 134.15
  C 400.64 134.23 403.23 134.16 403.68 139.04
  Q 403.88 141.17 403.86 141.80
  A 0.35 0.35 0.0 0 1 403.37 142.11
  C 392.74 137.59 370.28 138.44 369.72 154.53
  C 369.53 159.80 369.39 165.06 372.34 169.50
  C 376.68 176.04 383.73 177.87 391.29 176.72
  Q 399.01 175.53 403.38 168.80
  A 0.46 0.45 50.2 0 1 404.19 168.88
  Z
  M 488.96 117.29
  L 470.61 117.29
  A 0.64 0.63 -82.1 0 0 470.00 117.76
  L 460.24 153.55
  A 1.15 1.15 0.0 0 1 458.20 153.91
  Q 457.43 152.83 457.02 150.99
  Q 453.36 134.75 448.23 118.32
  A 1.34 1.33 -8.5 0 0 446.95 117.38
  L 429.01 117.38
  A 1.10 1.09 85.5 0 0 427.93 118.65
  Q 428.46 122.06 429.85 125.94
  Q 436.66 145.01 447.51 177.02
  C 448.55 180.09 446.80 181.73 443.74 181.93
  Q 438.50 182.27 433.31 181.81
  A 0.67 0.67 0.0 0 0 432.58 182.48
  L 432.58 198.61
  A 0.54 0.54 0.0 0 0 433.11 199.15
  Q 441.36 199.31 448.45 199.11
  C 461.63 198.74 465.73 191.01 469.86 178.81
  Q 473.85 167.01 488.70 125.22
  C 489.43 123.15 490.08 120.12 489.89 118.14
  A 0.94 0.93 87.3 0 0 488.96 117.29
  Z
  M 364.44 202.43
  A 12.23 12.23 0.0 0 0 352.21 190.20
  A 12.23 12.23 0.0 0 0 339.98 202.43
  A 12.23 12.23 0.0 0 0 352.21 214.66
  A 12.23 12.23 0.0 0 0 364.44 202.43
  Z
  M 515.67 196.06
  L 496.32 196.06
  A 0.48 0.48 0.0 0 0 495.84 196.54
  Q 495.84 217.57 495.90 253.26
  Q 495.91 260.42 497.06 264.93
  C 499.31 273.73 508.02 278.48 516.77 278.51
  Q 521.29 278.53 527.38 278.93
  A 0.36 0.36 0.0 0 0 527.76 278.57
  L 527.76 261.87
  A 0.70 0.70 0.0 0 0 526.98 261.17
  Q 524.11 261.52 520.75 261.46
  Q 516.41 261.39 516.42 256.75
  Q 516.45 249.82 516.35 196.73
  A 0.68 0.67 0.0 0 0 515.67 196.06
  Z
  M 121.91 201.01
  A 0.59 0.59 0.0 0 0 121.32 201.60
  L 121.32 278.38
  A 0.59 0.59 0.0 0 0 121.91 278.97
  L 142.18 278.97
  A 0.59 0.59 0.0 0 0 142.77 278.38
  L 142.77 251.09
  A 0.59 0.59 0.0 0 1 143.36 250.50
  L 167.06 250.50
  A 0.59 0.59 0.0 0 0 167.65 249.91
  L 167.65 232.54
  A 0.59 0.59 0.0 0 0 167.06 231.95
  L 143.32 231.95
  A 0.59 0.59 0.0 0 1 142.73 231.36
  L 142.73 220.94
  A 0.59 0.59 0.0 0 1 143.32 220.35
  L 172.32 220.35
  A 0.59 0.59 0.0 0 0 172.91 219.76
  L 172.91 201.60
  A 0.59 0.59 0.0 0 0 172.32 201.01
  L 121.91 201.01
  Z
  M 333.62 278.23
  L 333.62 262.08
  A 0.51 0.50 88.9 0 0 333.10 261.57
  C 329.56 261.71 323.43 262.62 321.92 258.97
  A 2.49 2.44 33.8 0 1 321.74 258.10
  L 321.54 238.33
  A 0.58 0.58 0.0 0 1 322.12 237.74
  L 333.83 237.74
  A 0.62 0.61 0.0 0 0 334.45 237.13
  L 334.45 220.79
  A 0.55 0.55 0.0 0 0 333.90 220.24
  L 322.36 220.24
  A 0.70 0.70 0.0 0 1 321.66 219.54
  L 321.66 204.87
  A 0.68 0.67 90.0 0 0 320.99 204.19
  L 310.20 204.19
  A 1.21 1.21 0.0 0 0 309.15 204.80
  L 300.61 219.57
  A 1.37 1.36 14.6 0 1 299.42 220.26
  L 292.18 220.26
  A 0.55 0.54 -90.0 0 0 291.64 220.81
  L 291.64 236.72
  A 0.66 0.65 -90.0 0 0 292.29 237.38
  L 300.72 237.38
  A 0.62 0.61 0.0 0 1 301.34 237.99
  Q 301.31 247.90 301.35 257.32
  Q 301.41 274.05 316.96 277.97
  Q 321.18 279.04 333.07 278.80
  A 0.57 0.57 0.0 0 0 333.62 278.23
  Z
  M 232.21 269.94
  L 221.56 259.30
  A 0.67 0.67 0.0 0 0 220.64 259.28
  C 215.28 264.19 210.10 266.34 202.37 264.53
  A 8.29 8.25 -15.8 0 1 198.42 262.33
  L 194.98 258.89
  A 2.43 2.43 0.0 0 1 196.70 254.74
  L 232.44 254.74
  A 2.05 2.04 -88.2 0 0 234.48 252.82
  Q 234.78 247.95 234.28 242.50
  C 232.48 222.91 211.42 214.61 194.55 220.37
  Q 182.24 224.58 177.02 236.26
  C 174.95 240.89 175.34 244.89 175.25 250.51
  C 174.99 265.86 185.39 278.00 200.42 280.29
  Q 219.46 283.19 232.20 270.79
  A 0.60 0.60 0.0 0 0 232.21 269.94
  Z
  M 251.32 259.77
  A 1.05 1.04 44.8 0 0 249.85 259.77
  L 239.54 270.09
  A 0.74 0.74 0.0 0 0 239.52 271.12
  C 247.37 279.42 258.02 281.84 269.47 280.25
  C 278.86 278.95 287.97 272.54 287.78 262.18
  Q 287.69 257.14 287.56 256.23
  C 286.04 245.54 274.42 243.84 265.95 242.08
  C 263.13 241.50 257.96 239.33 259.55 235.74
  Q 260.31 234.01 262.94 233.35
  C 268.56 231.93 273.36 235.19 276.54 239.52
  A 0.71 0.70 49.5 0 0 277.61 239.61
  L 287.83 229.38
  A 1.11 1.11 0.0 0 0 287.88 227.85
  Q 282.81 222.09 275.40 220.08
  C 266.13 217.57 254.55 217.89 246.95 224.42
  Q 242.12 228.57 241.66 233.84
  Q 241.13 239.80 241.76 242.66
  C 244.12 253.40 254.71 255.32 264.10 257.40
  Q 266.76 257.99 268.28 259.94
  A 2.48 2.16 49.3 0 1 268.26 263.03
  Q 267.08 264.20 265.27 264.43
  Q 257.06 265.45 251.32 259.77
  Z
  M 362.20 221.02
  A 0.65 0.65 0.0 0 0 361.55 220.37
  L 342.33 220.37
  A 0.65 0.65 0.0 0 0 341.68 221.02
  L 341.68 278.20
  A 0.65 0.65 0.0 0 0 342.33 278.85
  L 361.55 278.85
  A 0.65 0.65 0.0 0 0 362.20 278.20
  L 362.20 221.02
  Z
  M 399.45 278.96
  Q 404.93 278.96 410.24 278.91
  A 1.05 1.05 0.0 0 0 411.21 278.23
  Q 414.82 268.23 429.90 226.46
  Q 430.81 223.97 430.71 220.99
  A 0.71 0.70 89.2 0 0 430.01 220.30
  L 411.13 220.30
  A 1.09 1.08 -82.2 0 0 410.09 221.10
  Q 405.07 239.18 400.65 253.91
  Q 400.24 255.28 399.46 255.28
  Q 398.67 255.28 398.26 253.91
  Q 393.86 239.18 388.85 221.09
  A 1.09 1.08 82.3 0 0 387.81 220.29
  L 368.93 220.27
  A 0.71 0.70 -89.1 0 0 368.23 220.96
  Q 368.13 223.94 369.04 226.43
  Q 384.08 268.22 387.68 278.22
  A 1.05 1.05 0.0 0 0 388.65 278.90
  Q 393.96 278.96 399.45 278.96
  Z
  M 466.97 272.33
  L 469.21 277.68
  A 1.71 1.70 78.5 0 0 470.78 278.73
  L 486.86 278.73
  A 0.43 0.43 0.0 0 0 487.29 278.30
  Q 487.28 257.83 487.08 241.50
  C 486.91 227.70 479.07 220.70 465.48 220.39
  Q 453.03 220.11 438.15 220.30
  A 0.58 0.57 -0.5 0 0 437.58 220.87
  L 437.58 236.61
  A 0.68 0.67 0.0 0 0 438.26 237.28
  Q 450.46 237.25 458.97 237.36
  C 463.19 237.41 465.81 237.33 466.29 242.25
  Q 466.50 244.39 466.48 245.03
  A 0.35 0.35 0.0 0 1 465.99 245.34
  C 455.25 240.85 432.60 241.83 432.13 258.06
  C 431.97 263.38 431.86 268.68 434.86 273.14
  C 439.28 279.71 446.39 281.52 454.01 280.31
  Q 461.79 279.07 466.16 272.26
  A 0.46 0.46 0.0 0 1 466.97 272.33
  Z"
/>
<path fill="#ffcd01" d="
  M 187.69 128.60
  L 174.97 129.83
  A 0.67 0.67 0.0 0 1 174.24 129.22
  Q 173.69 123.12 172.65 114.80
  Q 172.30 111.94 171.02 109.99
  Q 162.66 97.16 152.93 81.95
  A 0.85 0.84 71.0 0 1 153.56 80.65
  L 166.51 79.40
  A 1.40 1.39 72.2 0 1 167.86 80.10
  L 177.58 96.94
  A 0.55 0.54 -49.6 0 0 178.56 96.86
  L 185.41 78.78
  A 1.80 1.80 0.0 0 1 186.91 77.64
  L 199.55 76.42
  A 0.72 0.72 0.0 0 1 200.30 77.35
  C 197.44 86.39 192.95 95.83 187.42 108.20
  Q 186.67 109.88 186.85 113.00
  Q 187.32 120.97 188.11 128.08
  A 0.47 0.46 84.6 0 1 187.69 128.60
  Z"
/>
<path fill="#ffcd01" d="
  M 113.13 107.39
  A 0.59 0.59 0.0 0 0 112.05 107.77
  L 114.65 134.77
  A 0.47 0.47 0.0 0 1 114.23 135.29
  L 102.14 136.45
  A 0.62 0.62 0.0 0 1 101.46 135.89
  L 96.64 85.85
  A 0.83 0.82 85.0 0 1 97.40 84.94
  Q 102.06 84.59 110.24 84.10
  C 111.76 84.01 112.46 85.30 113.25 86.46
  Q 114.34 88.05 124.19 102.84
  A 0.73 0.73 0.0 0 0 125.46 102.74
  L 134.32 83.01
  A 1.43 1.43 0.0 0 1 135.49 82.17
  L 148.56 80.92
  A 0.73 0.73 0.0 0 1 149.36 81.58
  L 154.13 131.11
  A 0.61 0.60 -5.7 0 1 153.58 131.77
  L 141.23 132.96
  A 0.56 0.55 -5.8 0 1 140.62 132.47
  L 137.65 106.23
  A 0.12 0.10 -72.1 0 0 137.62 106.15
  L 137.29 105.78
  A 0.31 0.31 0.0 0 0 136.78 105.86
  L 131.33 117.98
  A 1.39 1.39 0.0 0 1 130.20 118.79
  L 121.70 119.61
  A 1.03 1.01 70.4 0 1 120.75 119.15
  L 113.13 107.39
  Z"
/>
<path fill="#ffcd01" d="
  M 364.73 158.33
  A 0.37 0.37 0.0 0 1 365.08 158.70
  L 365.08 174.45
  A 0.66 0.66 0.0 0 1 364.45 175.11
  Q 356.79 175.36 350.75 174.83
  C 341.90 174.04 335.24 168.31 332.89 159.99
  Q 332.01 156.86 332.03 149.40
  Q 332.08 135.68 332.10 91.07
  A 0.30 0.30 0.0 0 1 332.40 90.77
  L 351.87 90.77
  A 0.85 0.84 89.7 0 1 352.71 91.61
  Q 352.91 108.04 352.92 147.00
  C 352.92 151.33 352.64 157.20 358.46 157.79
  Q 361.47 158.10 364.73 158.33
  Z"
/>
<path fill="#ffcd01" d="
  M 265.16 175.28
  A 0.33 0.33 0.0 0 1 264.83 174.95
  L 264.83 97.83
  A 0.47 0.47 0.0 0 1 265.29 97.36
  Q 279.99 97.22 290.25 97.24
  Q 302.28 97.27 305.20 97.74
  C 313.07 98.98 320.76 103.30 323.93 111.11
  Q 324.97 113.67 324.97 119.99
  Q 324.95 129.87 324.96 130.12
  Q 325.14 136.80 323.69 139.87
  C 320.17 147.32 311.76 151.13 303.71 151.62
  Q 295.21 152.14 287.32 151.98
  A 0.88 0.88 0.0 0 0 286.43 152.86
  L 286.43 174.86
  A 0.43 0.42 -0.0 0 1 286.00 175.28
  L 265.16 175.28
  Z
  M 286.55 117.45
  L 286.47 132.09
  A 0.81 0.81 0.0 0 0 287.28 132.91
  L 298.08 132.96
  A 6.75 6.74 0.3 0 0 304.86 126.26
  L 304.88 123.48
  A 6.75 6.74 0.3 0 0 298.16 116.70
  L 287.36 116.65
  A 0.81 0.81 0.0 0 0 286.55 117.45
  Z"
/>
<path fill="#fee057" d="
  M 73.66 110.10
  L 74.78 121.21
  A 2.68 2.64 -78.8 0 0 76.15 123.29
  Q 83.57 127.35 87.75 129.98
  Q 90.51 131.72 90.85 134.85
  A 2.04 2.03 -14.6 0 1 89.61 136.95
  L 76.43 142.46
  A 1.23 1.22 60.4 0 0 75.92 144.32
  Q 76.92 145.64 76.02 146.81
  L 75.23 143.61
  A 0.25 0.25 0.0 0 0 74.78 143.52
  Q 73.99 144.57 73.85 145.67
  C 73.09 151.56 71.75 157.55 68.35 162.08
  A 2.90 2.90 0.0 0 1 65.07 163.09
  C 63.74 162.62 62.06 161.44 61.01 160.17
  Q 57.96 156.50 53.03 151.52
  A 3.44 3.40 -24.2 0 0 50.36 150.52
  C 43.81 150.99 38.49 152.21 33.20 150.64
  A 0.87 0.86 -88.9 0 1 32.61 150.02
  C 30.90 143.36 39.05 139.56 39.92 132.96
  Q 40.17 131.11 38.87 128.14
  Q 36.55 122.81 35.20 117.22
  Q 35.56 115.43 35.20 113.65
  C 40.50 112.00 44.01 113.42 49.86 115.16
  C 51.23 115.57 53.10 114.93 54.37 113.92
  Q 59.08 110.18 64.90 106.16
  Q 66.93 104.75 69.27 104.10
  A 0.91 0.90 -30.0 0 1 70.15 104.33
  Q 72.36 106.57 73.66 110.10
  Z
  M 55.5666 130.8211
  A 4.56 4.33 -140.2 0 0 56.2983 137.0667
  A 4.56 4.33 -140.2 0 0 62.5734 136.6589
  A 4.56 4.33 -140.2 0 0 61.8417 130.4133
  A 4.56 4.33 -140.2 0 0 55.5666 130.8211
  Z"
/>
<path fill="#ffcd01" d="
  M 585.02 128.77
  Q 580.09 131.78 578.44 133.95
  Q 577.10 135.69 576.28 140.97
  Q 577.91 147.53 582.32 153.34
  Q 584.62 156.37 584.98 158.05
  Q 586.04 162.97 584.93 167.80
  A 3.41 3.39 69.3 0 1 584.41 168.96
  Q 581.24 173.44 579.23 174.73
  Q 575.88 176.89 575.04 177.45
  A 1.52 1.51 73.1 0 0 574.37 178.71
  L 574.37 186.87
  A 1.40 1.39 14.6 0 0 575.09 188.09
  L 575.99 188.58
  Q 575.09 188.89 574.25 188.91
  Q 552.02 189.44 530.49 188.93
  Q 531.26 183.53 530.49 177.93
  A 1.97 1.86 24.9 0 0 530.13 177.03
  Q 528.24 174.43 526.29 174.69
  Q 517.32 166.04 520.61 153.11
  Q 522.61 145.26 527.91 139.69
  Q 530.49 139.32 532.28 140.10
  C 534.14 140.91 534.28 143.29 535.90 144.60
  A 2.14 2.11 59.8 0 0 537.52 145.04
  Q 540.48 144.63 547.62 144.21
  Q 549.37 144.10 552.00 142.41
  A 1.42 1.41 -7.0 0 0 552.59 141.66
  Q 553.40 139.32 552.70 138.04
  C 550.22 133.48 547.77 129.71 548.93 124.89
  Q 550.52 118.31 555.05 113.59
  C 558.97 109.51 563.20 109.55 569.31 109.64
  Q 577.12 109.75 581.10 116.41
  Q 584.46 122.05 585.02 128.77
  Z
  M 576.3768 121.0144
  A 4.26 3.47 -92.6 0 0 573.1036 125.4274
  A 4.26 3.47 -92.6 0 0 576.7632 129.5256
  A 4.26 3.47 -92.6 0 0 580.0364 125.1126
  A 4.26 3.47 -92.6 0 0 576.3768 121.0144
  Z"
/>
<path fill="#62448c" d="
  M 35.20 113.65
  Q 35.56 115.43 35.20 117.22
  Q 34.70 115.48 35.20 113.65
  Z"
/>
<path fill="#62448c" d="
  M 286.55 117.45
  A 0.81 0.81 0.0 0 1 287.36 116.65
  L 298.16 116.70
  A 6.75 6.74 0.3 0 1 304.88 123.48
  L 304.86 126.26
  A 6.75 6.74 0.3 0 1 298.08 132.96
  L 287.28 132.91
  A 0.81 0.81 0.0 0 1 286.47 132.09
  L 286.55 117.45
  Z"
/>
<path fill="#ffcd01" d="
  M 404.19 168.88
  A 0.46 0.45 50.2 0 0 403.38 168.80
  Q 399.01 175.53 391.29 176.72
  C 383.73 177.87 376.68 176.04 372.34 169.50
  C 369.39 165.06 369.53 159.80 369.72 154.53
  C 370.28 138.44 392.74 137.59 403.37 142.11
  A 0.35 0.35 0.0 0 0 403.86 141.80
  Q 403.88 141.17 403.68 139.04
  C 403.23 134.16 400.64 134.23 396.45 134.15
  Q 388.01 134.00 375.91 133.96
  A 0.67 0.66 0.3 0 1 375.24 133.29
  L 375.33 117.68
  A 0.58 0.57 -0.2 0 1 375.90 117.12
  Q 390.66 117.01 403.00 117.36
  C 416.48 117.75 424.21 124.73 424.30 138.42
  Q 424.41 154.61 424.30 174.91
  A 0.43 0.43 0.0 0 1 423.87 175.34
  L 407.93 175.25
  A 1.70 1.68 78.9 0 1 406.38 174.20
  L 404.19 168.88
  Z
  M 403.7699 158.0192
  A 7.79 4.30 -0.3 0 0 395.9575 153.7601
  A 7.79 4.30 -0.3 0 0 388.1901 158.1008
  A 7.79 4.30 -0.3 0 0 396.0025 162.3599
  A 7.79 4.30 -0.3 0 0 403.7699 158.0192
  Z"
/>
<path fill="#ffcd01" d="
  M 488.96 117.29
  A 0.94 0.93 87.3 0 1 489.89 118.14
  C 490.08 120.12 489.43 123.15 488.70 125.22
  Q 473.85 167.01 469.86 178.81
  C 465.73 191.01 461.63 198.74 448.45 199.11
  Q 441.36 199.31 433.11 199.15
  A 0.54 0.54 0.0 0 1 432.58 198.61
  L 432.58 182.48
  A 0.67 0.67 0.0 0 1 433.31 181.81
  Q 438.50 182.27 443.74 181.93
  C 446.80 181.73 448.55 180.09 447.51 177.02
  Q 436.66 145.01 429.85 125.94
  Q 428.46 122.06 427.93 118.65
  A 1.10 1.09 85.5 0 1 429.01 117.38
  L 446.95 117.38
  A 1.34 1.33 -8.5 0 1 448.23 118.32
  Q 453.36 134.75 457.02 150.99
  Q 457.43 152.83 458.20 153.91
  A 1.15 1.15 0.0 0 0 460.24 153.55
  L 470.00 117.76
  A 0.64 0.63 -82.1 0 1 470.61 117.29
  L 488.96 117.29
  Z"
/>
<path fill="#05588c" d="
  M 576.3768 121.0144
  A 4.26 3.47 -92.6 0 1 580.0364 125.1126
  A 4.26 3.47 -92.6 0 1 576.7632 129.5256
  A 4.26 3.47 -92.6 0 1 573.1036 125.4274
  A 4.26 3.47 -92.6 0 1 576.3768 121.0144
  Z
  M 578.45 123.57
  A 1.39 1.39 0.0 0 0 577.06 122.18
  A 1.39 1.39 0.0 0 0 575.67 123.57
  A 1.39 1.39 0.0 0 0 577.06 124.96
  A 1.39 1.39 0.0 0 0 578.45 123.57
  Z"
/>
<circle fill="#fee057" cx="577.06" cy="123.57" r="1.39"/>
<path fill="#f58115" d="
  M 585.02 128.77
  Q 586.22 130.42 587.53 131.88
  C 589.41 133.97 589.62 135.35 586.98 136.75
  Q 581.70 139.54 576.28 140.97
  Q 577.10 135.69 578.44 133.95
  Q 580.09 131.78 585.02 128.77
  Z"
/>
<ellipse fill="#ecebeb" cx="0.00" cy="0.00" transform="translate(59.07,133.74) rotate(-140.2)" rx="4.56" ry="4.33"/>
<path fill="#dd1f19" d="
  M 226.13 137.34
  L 227.58 144.47
  Q 227.75 143.85 227.92 143.23
  Q 226.75 149.25 228.18 154.11
  L 227.79 155.09
  C 215.00 156.33 199.77 157.33 189.40 158.36
  Q 158.79 161.38 133.06 163.29
  C 117.84 164.41 97.97 166.78 79.70 167.59
  A 0.56 0.55 -5.9 0 1 79.13 167.13
  L 76.60 150.79
  Q 78.97 149.35 82.06 149.09
  Q 146.14 143.64 210.23 138.33
  Q 221.13 137.43 226.13 137.34
  Z"
/>
<path fill="#e879a3" d="
  M 227.92 143.23
  Q 229.43 149.10 228.80 154.04
  A 0.30 0.29 -84.5 0 1 228.50 154.30
  Q 228.24 154.28 228.18 154.11
  Q 226.75 149.25 227.92 143.23
  Z"
/>
<ellipse fill="#62448c" cx="0.00" cy="0.00" transform="translate(395.98,158.06) rotate(-0.3)" rx="7.79" ry="4.30"/>
<path fill="#ecebeb" d="
  M 530.49 188.93
  Q 528.27 189.18 527.85 188.39
  A 0.33 0.32 34.3 0 1 527.81 188.20
  Q 528.35 180.17 526.29 174.69
  Q 528.24 174.43 530.13 177.03
  A 1.97 1.86 24.9 0 1 530.49 177.93
  Q 531.26 183.53 530.49 188.93
  Z"
/>
<circle fill="#ecebeb" cx="352.21" cy="202.43" r="12.23"/>
<path fill="#ecebeb" d="
  M 515.67 196.06
  A 0.68 0.67 0.0 0 1 516.35 196.73
  Q 516.45 249.82 516.42 256.75
  Q 516.41 261.39 520.75 261.46
  Q 524.11 261.52 526.98 261.17
  A 0.70 0.70 0.0 0 1 527.76 261.87
  L 527.76 278.57
  A 0.36 0.36 0.0 0 1 527.38 278.93
  Q 521.29 278.53 516.77 278.51
  C 508.02 278.48 499.31 273.73 497.06 264.93
  Q 495.91 260.42 495.90 253.26
  Q 495.84 217.57 495.84 196.54
  A 0.48 0.48 0.0 0 1 496.32 196.06
  L 515.67 196.06
  Z"
/>
<path fill="#ecebeb" d="
  M 121.91 201.01
  L 172.32 201.01
  A 0.59 0.59 0.0 0 1 172.91 201.60
  L 172.91 219.76
  A 0.59 0.59 0.0 0 1 172.32 220.35
  L 143.32 220.35
  A 0.59 0.59 0.0 0 0 142.73 220.94
  L 142.73 231.36
  A 0.59 0.59 0.0 0 0 143.32 231.95
  L 167.06 231.95
  A 0.59 0.59 0.0 0 1 167.65 232.54
  L 167.65 249.91
  A 0.59 0.59 0.0 0 1 167.06 250.50
  L 143.36 250.50
  A 0.59 0.59 0.0 0 0 142.77 251.09
  L 142.77 278.38
  A 0.59 0.59 0.0 0 1 142.18 278.97
  L 121.91 278.97
  A 0.59 0.59 0.0 0 1 121.32 278.38
  L 121.32 201.60
  A 0.59 0.59 0.0 0 1 121.91 201.01
  Z"
/>
<path fill="#ecebeb" d="
  M 333.07 278.80
  Q 321.18 279.04 316.96 277.97
  Q 301.41 274.05 301.35 257.32
  Q 301.31 247.90 301.34 237.99
  A 0.62 0.61 -0.0 0 0 300.72 237.38
  L 292.29 237.38
  A 0.66 0.65 90.0 0 1 291.64 236.72
  L 291.64 220.81
  A 0.55 0.54 -90.0 0 1 292.18 220.26
  L 299.42 220.26
  A 1.37 1.36 14.6 0 0 300.61 219.57
  L 309.15 204.80
  A 1.21 1.21 0.0 0 1 310.20 204.19
  L 320.99 204.19
  A 0.68 0.67 -90.0 0 1 321.66 204.87
  L 321.66 219.54
  A 0.70 0.70 0.0 0 0 322.36 220.24
  L 333.90 220.24
  A 0.55 0.55 0.0 0 1 334.45 220.79
  L 334.45 237.13
  A 0.62 0.61 0.0 0 1 333.83 237.74
  L 322.12 237.74
  A 0.58 0.58 0.0 0 0 321.54 238.33
  L 321.74 258.10
  A 2.49 2.44 33.8 0 0 321.92 258.97
  C 323.43 262.62 329.56 261.71 333.10 261.57
  A 0.51 0.50 88.9 0 1 333.62 262.08
  L 333.62 278.23
  A 0.57 0.57 0.0 0 1 333.07 278.80
  Z"
/>
<path fill="#f58115" d="
  M 78.50 209.35
  L 102.17 209.37
  A 1.03 1.03 0.0 0 1 103.20 210.40
  L 103.20 260.40
  A 0.58 0.58 0.0 0 1 102.61 260.98
  L 78.77 260.68
  L 53.02 260.24
  A 1.03 1.03 0.0 0 1 52.01 259.21
  L 52.01 245.81
  A 1.01 1.00 89.4 0 0 50.99 244.80
  L 43.40 244.90
  A 5.54 5.53 -62.7 0 0 40.37 245.87
  Q 40.19 245.97 37.88 247.61
  C 33.38 250.82 27.04 250.16 22.16 250.72
  A 2.62 2.62 0.0 0 1 19.25 248.12
  L 19.25 247.09
  A 2.53 2.53 0.0 0 1 21.80 244.56
  C 26.00 244.60 29.73 245.19 33.24 243.96
  Q 40.72 241.34 38.75 232.23
  A 2.88 2.86 -69.4 0 0 38.25 231.12
  C 33.60 224.98 28.87 225.64 21.90 225.93
  A 2.90 2.89 85.9 0 1 18.90 223.32
  L 18.81 222.33
  A 3.04 3.04 0.0 0 1 21.97 219.00
  L 32.09 219.45
  A 5.01 4.98 57.2 0 1 33.73 219.81
  Q 36.73 221.04 39.69 223.13
  C 43.21 225.61 46.90 226.33 50.56 225.63
  A 0.99 0.98 2.8 0 0 51.33 224.94
  Q 51.98 222.71 51.98 221.01
  Q 51.98 214.76 52.09 211.04
  A 1.21 1.21 0.0 0 1 53.28 209.86
  L 78.50 209.35
  Z"
/>
<path fill="#ecebeb" d="
  M 232.20 270.79
  Q 219.46 283.19 200.42 280.29
  C 185.39 278.00 174.99 265.86 175.25 250.51
  C 175.34 244.89 174.95 240.89 177.02 236.26
  Q 182.24 224.58 194.55 220.37
  C 211.42 214.61 232.48 222.91 234.28 242.50
  Q 234.78 247.95 234.48 252.82
  A 2.05 2.04 -88.2 0 1 232.44 254.74
  L 196.70 254.74
  A 2.43 2.43 0.0 0 0 194.98 258.89
  L 198.42 262.33
  A 8.29 8.25 -15.8 0 0 202.37 264.53
  C 210.10 266.34 215.28 264.19 220.64 259.28
  A 0.67 0.67 0.0 0 1 221.56 259.30
  L 232.21 269.94
  A 0.60 0.60 0.0 0 1 232.20 270.79
  Z
  M 195.07 242.64
  L 217.21 242.68
  A 0.15 0.15 0.0 0 0 217.36 242.53
  L 217.36 242.41
  A 10.23 10.21 0.1 0 0 207.15 232.18
  L 205.17 232.18
  A 10.23 10.21 0.1 0 0 194.92 242.37
  L 194.92 242.49
  A 0.15 0.15 0.0 0 0 195.07 242.64
  Z"
/>
<path fill="#ecebeb" d="
  M 251.32 259.77
  Q 257.06 265.45 265.27 264.43
  Q 267.08 264.20 268.26 263.03
  A 2.48 2.16 49.3 0 0 268.28 259.94
  Q 266.76 257.99 264.10 257.40
  C 254.71 255.32 244.12 253.40 241.76 242.66
  Q 241.13 239.80 241.66 233.84
  Q 242.12 228.57 246.95 224.42
  C 254.55 217.89 266.13 217.57 275.40 220.08
  Q 282.81 222.09 287.88 227.85
  A 1.11 1.11 0.0 0 1 287.83 229.38
  L 277.61 239.61
  A 0.71 0.70 49.5 0 1 276.54 239.52
  C 273.36 235.19 268.56 231.93 262.94 233.35
  Q 260.31 234.01 259.55 235.74
  C 257.96 239.33 263.13 241.50 265.95 242.08
  C 274.42 243.84 286.04 245.54 287.56 256.23
  Q 287.69 257.14 287.78 262.18
  C 287.97 272.54 278.86 278.95 269.47 280.25
  C 258.02 281.84 247.37 279.42 239.52 271.12
  A 0.74 0.74 0.0 0 1 239.54 270.09
  L 249.85 259.77
  A 1.05 1.04 44.8 0 1 251.32 259.77
  Z"
/>
<rect fill="#ecebeb" x="341.68" y="220.37" width="20.52" height="58.48" rx="0.65"/>
<path fill="#ecebeb" d="
  M 399.46 255.28
  Q 400.24 255.28 400.65 253.91
  Q 405.07 239.18 410.09 221.10
  A 1.09 1.08 -82.2 0 1 411.13 220.30
  L 430.01 220.30
  A 0.71 0.70 89.2 0 1 430.71 220.99
  Q 430.81 223.97 429.90 226.46
  Q 414.82 268.23 411.21 278.23
  A 1.05 1.05 0.0 0 1 410.24 278.91
  Q 404.93 278.96 399.45 278.96
  Q 393.96 278.96 388.65 278.90
  A 1.05 1.05 0.0 0 1 387.68 278.22
  Q 384.08 268.22 369.04 226.43
  Q 368.13 223.94 368.23 220.96
  A 0.71 0.70 -89.1 0 1 368.93 220.27
  L 387.81 220.29
  A 1.09 1.08 82.3 0 1 388.85 221.09
  Q 393.86 239.18 398.26 253.91
  Q 398.67 255.28 399.46 255.28
  Z"
/>
<path fill="#ecebeb" d="
  M 466.97 272.33
  A 0.46 0.46 0.0 0 0 466.16 272.26
  Q 461.79 279.07 454.01 280.31
  C 446.39 281.52 439.28 279.71 434.86 273.14
  C 431.86 268.68 431.97 263.38 432.13 258.06
  C 432.60 241.83 455.25 240.85 465.99 245.34
  A 0.35 0.35 0.0 0 0 466.48 245.03
  Q 466.50 244.39 466.29 242.25
  C 465.81 237.33 463.19 237.41 458.97 237.36
  Q 450.46 237.25 438.26 237.28
  A 0.68 0.67 -0.0 0 1 437.58 236.61
  L 437.58 220.87
  A 0.58 0.57 -0.5 0 1 438.15 220.30
  Q 453.03 220.11 465.48 220.39
  C 479.07 220.70 486.91 227.70 487.08 241.50
  Q 487.28 257.83 487.29 278.30
  A 0.43 0.43 0.0 0 1 486.86 278.73
  L 470.78 278.73
  A 1.71 1.70 78.5 0 1 469.21 277.68
  L 466.97 272.33
  Z
  M 466.3400 261.3767
  A 7.61 4.06 -0.1 0 0 458.7229 257.3300
  A 7.61 4.06 -0.1 0 0 451.1200 261.4033
  A 7.61 4.06 -0.1 0 0 458.7371 265.4500
  A 7.61 4.06 -0.1 0 0 466.3400 261.3767
  Z"
/>
<path fill="#62448c" d="
  M 195.07 242.64
  A 0.15 0.15 0.0 0 1 194.92 242.49
  L 194.92 242.37
  A 10.23 10.21 0.1 0 1 205.17 232.18
  L 207.15 232.18
  A 10.23 10.21 0.1 0 1 217.36 242.41
  L 217.36 242.53
  A 0.15 0.15 0.0 0 1 217.21 242.68
  L 195.07 242.64
  Z"
/>
<path fill="#e879a3" d="
  M 529.66 302.74
  L 529.86 288.24
  A 0.76 0.76 0.0 0 1 530.61 287.49
  C 548.96 287.36 563.53 272.42 565.01 254.58
  A 0.76 0.75 2.8 0 1 565.78 253.89
  L 578.32 254.19
  Q 586.82 253.42 595.25 253.77
  Q 597.15 253.85 598.37 254.37
  A 1.31 1.31 0.0 0 1 599.17 255.59
  Q 599.09 274.09 589.32 289.33
  Q 586.32 294.00 580.66 301.06
  C 577.74 304.71 574.44 306.75 569.73 310.46
  Q 565.43 313.84 557.56 317.43
  Q 553.29 319.37 546.07 320.48
  Q 538.29 321.67 534.26 322.08
  C 529.76 322.53 529.88 318.84 529.73 315.40
  Q 529.55 311.25 529.86 306.43
  Q 529.90 305.83 529.73 304.60
  Q 529.59 303.62 529.66 302.74
  Z"
/>
<ellipse fill="#62448c" cx="0.00" cy="0.00" transform="translate(458.73,261.39) rotate(-0.1)" rx="7.61" ry="4.06"/>
</svg>
